<mxfile host="app.diagrams.net" modified="2021-03-01T15:05:14.099Z" agent="5.0 (Windows)" etag="2lpYNL-PO-qUflVczwn3" version="14.2.7" type="github">
  <diagram id="63qUIelSo1gNiVsqvv-A" name="Page-1">
    <mxGraphModel dx="1758" dy="1648" grid="1" gridSize="10" guides="1" tooltips="1" connect="1" arrows="1" fold="1" page="1" pageScale="1" pageWidth="827" pageHeight="1169" math="0" shadow="0">
      <root>
        <mxCell id="0" />
        <mxCell id="1" parent="0" />
        <mxCell id="81f_cwt7G0s8N4nvu43i-45" value="" style="rounded=0;orthogonalLoop=1;jettySize=auto;html=1;shape=link;" edge="1" parent="1" source="81f_cwt7G0s8N4nvu43i-3" target="81f_cwt7G0s8N4nvu43i-44">
          <mxGeometry relative="1" as="geometry" />
        </mxCell>
        <mxCell id="81f_cwt7G0s8N4nvu43i-3" value="&lt;font style=&quot;font-size: 12px&quot;&gt;เพดานราคา&lt;/font&gt;" style="text;html=1;fillColor=none;align=center;verticalAlign=middle;whiteSpace=wrap;rounded=0;strokeColor=#000000;" vertex="1" parent="1">
          <mxGeometry x="-6" y="290" width="100" height="20" as="geometry" />
        </mxCell>
        <mxCell id="81f_cwt7G0s8N4nvu43i-4" value="&lt;font style=&quot;font-size: 12px&quot;&gt;ธนาคารแห่งประเทศ&lt;/font&gt;" style="text;html=1;strokeColor=none;fillColor=none;align=center;verticalAlign=middle;whiteSpace=wrap;rounded=0;" vertex="1" parent="1">
          <mxGeometry x="544" y="440" width="140" height="20" as="geometry" />
        </mxCell>
        <mxCell id="81f_cwt7G0s8N4nvu43i-15" value="ทองคำ" style="text;html=1;strokeColor=none;fillColor=none;align=center;verticalAlign=middle;whiteSpace=wrap;rounded=0;" vertex="1" parent="1">
          <mxGeometry x="634" y="180" width="100" height="20" as="geometry" />
        </mxCell>
        <mxCell id="81f_cwt7G0s8N4nvu43i-16" value="ธนาคารไทยพาณิชย์" style="text;html=1;strokeColor=none;fillColor=none;align=center;verticalAlign=middle;whiteSpace=wrap;rounded=0;" vertex="1" parent="1">
          <mxGeometry x="390" y="550" width="100" height="20" as="geometry" />
        </mxCell>
        <mxCell id="81f_cwt7G0s8N4nvu43i-17" value="กนง." style="text;html=1;strokeColor=none;fillColor=none;align=center;verticalAlign=middle;whiteSpace=wrap;rounded=0;" vertex="1" parent="1">
          <mxGeometry x="324" y="520" width="100" height="20" as="geometry" />
        </mxCell>
        <mxCell id="81f_cwt7G0s8N4nvu43i-20" value="กรมธนารักษ์" style="text;html=1;strokeColor=none;fillColor=none;align=center;verticalAlign=middle;whiteSpace=wrap;rounded=0;" vertex="1" parent="1">
          <mxGeometry x="594" y="520" width="100" height="20" as="geometry" />
        </mxCell>
        <mxCell id="81f_cwt7G0s8N4nvu43i-21" value="ดอกเบี้ยนโยบาย" style="text;html=1;strokeColor=none;fillColor=none;align=center;verticalAlign=middle;whiteSpace=wrap;rounded=0;" vertex="1" parent="1">
          <mxGeometry x="434" y="470" width="100" height="20" as="geometry" />
        </mxCell>
        <mxCell id="81f_cwt7G0s8N4nvu43i-22" value="GNP" style="text;html=1;strokeColor=none;fillColor=none;align=center;verticalAlign=middle;whiteSpace=wrap;rounded=0;" vertex="1" parent="1">
          <mxGeometry x="390" y="650" width="100" height="20" as="geometry" />
        </mxCell>
        <mxCell id="81f_cwt7G0s8N4nvu43i-23" value="GDP" style="text;html=1;strokeColor=none;fillColor=none;align=center;verticalAlign=middle;whiteSpace=wrap;rounded=0;" vertex="1" parent="1">
          <mxGeometry x="450" y="620" width="100" height="20" as="geometry" />
        </mxCell>
        <mxCell id="81f_cwt7G0s8N4nvu43i-24" value="รัฐบาล" style="text;html=1;fillColor=none;align=center;verticalAlign=middle;whiteSpace=wrap;rounded=0;strokeColor=#000000;" vertex="1" parent="1">
          <mxGeometry x="-220" width="100" height="20" as="geometry" />
        </mxCell>
        <mxCell id="81f_cwt7G0s8N4nvu43i-25" value="ดุลการชำระเงิน" style="text;html=1;strokeColor=none;fillColor=none;align=center;verticalAlign=middle;whiteSpace=wrap;rounded=0;" vertex="1" parent="1">
          <mxGeometry x="250" y="490" width="100" height="20" as="geometry" />
        </mxCell>
        <mxCell id="81f_cwt7G0s8N4nvu43i-26" value="งบประมาณแผ่นดิน" style="text;html=1;strokeColor=none;fillColor=none;align=center;verticalAlign=middle;whiteSpace=wrap;rounded=0;" vertex="1" parent="1">
          <mxGeometry x="310" y="610" width="100" height="20" as="geometry" />
        </mxCell>
        <mxCell id="81f_cwt7G0s8N4nvu43i-27" value="กระทรวงการคลัง" style="text;html=1;strokeColor=none;fillColor=none;align=center;verticalAlign=middle;whiteSpace=wrap;rounded=0;" vertex="1" parent="1">
          <mxGeometry x="494" y="530" width="100" height="20" as="geometry" />
        </mxCell>
        <mxCell id="81f_cwt7G0s8N4nvu43i-28" value="เงินคงคลัง" style="text;html=1;strokeColor=none;fillColor=none;align=center;verticalAlign=middle;whiteSpace=wrap;rounded=0;" vertex="1" parent="1">
          <mxGeometry x="500" y="660" width="100" height="20" as="geometry" />
        </mxCell>
        <mxCell id="81f_cwt7G0s8N4nvu43i-29" value="สำนักงานสลากกินแบ่งรัฐบาล" style="text;html=1;strokeColor=none;fillColor=none;align=center;verticalAlign=middle;whiteSpace=wrap;rounded=0;" vertex="1" parent="1">
          <mxGeometry x="340" y="730" width="144" height="20" as="geometry" />
        </mxCell>
        <mxCell id="81f_cwt7G0s8N4nvu43i-30" value="พันธบัตร" style="text;html=1;strokeColor=none;fillColor=none;align=center;verticalAlign=middle;whiteSpace=wrap;rounded=0;" vertex="1" parent="1">
          <mxGeometry x="494" y="490" width="100" height="20" as="geometry" />
        </mxCell>
        <mxCell id="81f_cwt7G0s8N4nvu43i-31" value="สภาพัฒน์" style="text;html=1;strokeColor=none;fillColor=none;align=center;verticalAlign=middle;whiteSpace=wrap;rounded=0;" vertex="1" parent="1">
          <mxGeometry x="534" y="570" width="100" height="20" as="geometry" />
        </mxCell>
        <mxCell id="81f_cwt7G0s8N4nvu43i-47" value="" style="edgeStyle=none;shape=link;rounded=0;orthogonalLoop=1;jettySize=auto;html=1;" edge="1" parent="1" source="81f_cwt7G0s8N4nvu43i-32" target="81f_cwt7G0s8N4nvu43i-43">
          <mxGeometry relative="1" as="geometry" />
        </mxCell>
        <mxCell id="81f_cwt7G0s8N4nvu43i-32" value="ประกันราคา" style="text;html=1;fillColor=none;align=center;verticalAlign=middle;whiteSpace=wrap;rounded=0;strokeColor=#000000;" vertex="1" parent="1">
          <mxGeometry x="-490" y="290" width="100" height="20" as="geometry" />
        </mxCell>
        <mxCell id="81f_cwt7G0s8N4nvu43i-33" value="ตราสารหนี้" style="text;html=1;strokeColor=none;fillColor=none;align=center;verticalAlign=middle;whiteSpace=wrap;rounded=0;" vertex="1" parent="1">
          <mxGeometry x="374" y="795" width="100" height="20" as="geometry" />
        </mxCell>
        <mxCell id="81f_cwt7G0s8N4nvu43i-34" value="cryptocurrency" style="text;html=1;strokeColor=none;fillColor=none;align=center;verticalAlign=middle;whiteSpace=wrap;rounded=0;" vertex="1" parent="1">
          <mxGeometry x="564" y="600" width="100" height="20" as="geometry" />
        </mxCell>
        <mxCell id="81f_cwt7G0s8N4nvu43i-35" value="bitcoin" style="text;html=1;strokeColor=none;fillColor=none;align=center;verticalAlign=middle;whiteSpace=wrap;rounded=0;" vertex="1" parent="1">
          <mxGeometry x="564" y="670" width="100" height="20" as="geometry" />
        </mxCell>
        <mxCell id="81f_cwt7G0s8N4nvu43i-36" value="forex" style="text;html=1;strokeColor=none;fillColor=none;align=center;verticalAlign=middle;whiteSpace=wrap;rounded=0;" vertex="1" parent="1">
          <mxGeometry x="584" y="620" width="100" height="20" as="geometry" />
        </mxCell>
        <mxCell id="81f_cwt7G0s8N4nvu43i-37" value="IMF" style="text;html=1;strokeColor=none;fillColor=none;align=center;verticalAlign=middle;whiteSpace=wrap;rounded=0;" vertex="1" parent="1">
          <mxGeometry x="570" y="470" width="100" height="20" as="geometry" />
        </mxCell>
        <mxCell id="81f_cwt7G0s8N4nvu43i-38" value="World bank" style="text;html=1;strokeColor=none;fillColor=none;align=center;verticalAlign=middle;whiteSpace=wrap;rounded=0;" vertex="1" parent="1">
          <mxGeometry x="604" y="640" width="100" height="20" as="geometry" />
        </mxCell>
        <mxCell id="81f_cwt7G0s8N4nvu43i-39" value="โบรกเกอร์" style="text;html=1;strokeColor=none;fillColor=none;align=center;verticalAlign=middle;whiteSpace=wrap;rounded=0;" vertex="1" parent="1">
          <mxGeometry x="210" y="580" width="100" height="20" as="geometry" />
        </mxCell>
        <mxCell id="81f_cwt7G0s8N4nvu43i-40" value="หุ้น" style="text;html=1;strokeColor=none;fillColor=none;align=center;verticalAlign=middle;whiteSpace=wrap;rounded=0;" vertex="1" parent="1">
          <mxGeometry x="170" y="620" width="100" height="20" as="geometry" />
        </mxCell>
        <mxCell id="81f_cwt7G0s8N4nvu43i-41" value="ตลาดหลักทรัพย์" style="text;html=1;strokeColor=none;fillColor=none;align=center;verticalAlign=middle;whiteSpace=wrap;rounded=0;" vertex="1" parent="1">
          <mxGeometry x="260" y="660" width="100" height="20" as="geometry" />
        </mxCell>
        <mxCell id="81f_cwt7G0s8N4nvu43i-43" value="กำหนดราคาขั้นต่ำ" style="text;html=1;strokeColor=none;fillColor=none;align=center;verticalAlign=middle;whiteSpace=wrap;rounded=0;" vertex="1" parent="1">
          <mxGeometry x="-350" y="290" width="120" height="20" as="geometry" />
        </mxCell>
        <mxCell id="81f_cwt7G0s8N4nvu43i-44" value="กำหนดราคาขั้นสูง" style="text;html=1;strokeColor=none;fillColor=none;align=center;verticalAlign=middle;whiteSpace=wrap;rounded=0;" vertex="1" parent="1">
          <mxGeometry x="-166" y="290" width="120" height="20" as="geometry" />
        </mxCell>
        <mxCell id="81f_cwt7G0s8N4nvu43i-56" style="edgeStyle=none;rounded=0;orthogonalLoop=1;jettySize=auto;html=1;exitX=0;exitY=1;exitDx=0;exitDy=0;entryX=0.5;entryY=0;entryDx=0;entryDy=0;" edge="1" parent="1" source="81f_cwt7G0s8N4nvu43i-51" target="81f_cwt7G0s8N4nvu43i-54">
          <mxGeometry relative="1" as="geometry" />
        </mxCell>
        <mxCell id="81f_cwt7G0s8N4nvu43i-57" style="edgeStyle=none;rounded=0;orthogonalLoop=1;jettySize=auto;html=1;exitX=1;exitY=1;exitDx=0;exitDy=0;entryX=0.5;entryY=0;entryDx=0;entryDy=0;" edge="1" parent="1" source="81f_cwt7G0s8N4nvu43i-51" target="81f_cwt7G0s8N4nvu43i-55">
          <mxGeometry relative="1" as="geometry" />
        </mxCell>
        <mxCell id="81f_cwt7G0s8N4nvu43i-51" value="ตัวบอกสภาวะเศรษฐกิจ" style="rounded=1;whiteSpace=wrap;html=1;strokeColor=#000000;" vertex="1" parent="1">
          <mxGeometry x="325" y="-240" width="140" height="60" as="geometry" />
        </mxCell>
        <mxCell id="81f_cwt7G0s8N4nvu43i-64" style="edgeStyle=none;rounded=0;orthogonalLoop=1;jettySize=auto;html=1;exitX=0.5;exitY=1;exitDx=0;exitDy=0;entryX=0.5;entryY=0;entryDx=0;entryDy=0;" edge="1" parent="1" source="81f_cwt7G0s8N4nvu43i-54" target="81f_cwt7G0s8N4nvu43i-59">
          <mxGeometry relative="1" as="geometry" />
        </mxCell>
        <mxCell id="81f_cwt7G0s8N4nvu43i-65" style="edgeStyle=none;rounded=0;orthogonalLoop=1;jettySize=auto;html=1;exitX=0.5;exitY=1;exitDx=0;exitDy=0;entryX=0.5;entryY=0;entryDx=0;entryDy=0;" edge="1" parent="1" source="81f_cwt7G0s8N4nvu43i-54" target="81f_cwt7G0s8N4nvu43i-58">
          <mxGeometry relative="1" as="geometry" />
        </mxCell>
        <mxCell id="81f_cwt7G0s8N4nvu43i-54" value="ภายในประเทศ" style="text;html=1;strokeColor=none;fillColor=none;align=center;verticalAlign=middle;whiteSpace=wrap;rounded=0;" vertex="1" parent="1">
          <mxGeometry x="130" y="-140" width="140" height="20" as="geometry" />
        </mxCell>
        <mxCell id="81f_cwt7G0s8N4nvu43i-66" style="edgeStyle=none;rounded=0;orthogonalLoop=1;jettySize=auto;html=1;exitX=0.5;exitY=1;exitDx=0;exitDy=0;entryX=0.5;entryY=0;entryDx=0;entryDy=0;" edge="1" parent="1" source="81f_cwt7G0s8N4nvu43i-55" target="81f_cwt7G0s8N4nvu43i-60">
          <mxGeometry relative="1" as="geometry" />
        </mxCell>
        <mxCell id="81f_cwt7G0s8N4nvu43i-67" style="edgeStyle=none;rounded=0;orthogonalLoop=1;jettySize=auto;html=1;exitX=0.5;exitY=1;exitDx=0;exitDy=0;entryX=0.5;entryY=0;entryDx=0;entryDy=0;" edge="1" parent="1" source="81f_cwt7G0s8N4nvu43i-55" target="81f_cwt7G0s8N4nvu43i-61">
          <mxGeometry relative="1" as="geometry" />
        </mxCell>
        <mxCell id="81f_cwt7G0s8N4nvu43i-55" value="ภายนอกประเทศ" style="text;html=1;strokeColor=none;fillColor=none;align=center;verticalAlign=middle;whiteSpace=wrap;rounded=0;" vertex="1" parent="1">
          <mxGeometry x="500" y="-140" width="140" height="20" as="geometry" />
        </mxCell>
        <mxCell id="81f_cwt7G0s8N4nvu43i-58" value="เงินเฟ้อ" style="text;html=1;strokeColor=none;fillColor=none;align=center;verticalAlign=middle;whiteSpace=wrap;rounded=0;" vertex="1" parent="1">
          <mxGeometry x="60" y="-80" width="40" height="20" as="geometry" />
        </mxCell>
        <mxCell id="81f_cwt7G0s8N4nvu43i-59" value="เงินฝืด" style="text;html=1;strokeColor=none;fillColor=none;align=center;verticalAlign=middle;whiteSpace=wrap;rounded=0;" vertex="1" parent="1">
          <mxGeometry x="200" y="-80" width="40" height="20" as="geometry" />
        </mxCell>
        <mxCell id="81f_cwt7G0s8N4nvu43i-60" value="เงินเฟ้อ" style="text;html=1;strokeColor=none;fillColor=none;align=center;verticalAlign=middle;whiteSpace=wrap;rounded=0;" vertex="1" parent="1">
          <mxGeometry x="500" y="-90" width="40" height="20" as="geometry" />
        </mxCell>
        <mxCell id="81f_cwt7G0s8N4nvu43i-61" value="เงินฝืด" style="text;html=1;strokeColor=none;fillColor=none;align=center;verticalAlign=middle;whiteSpace=wrap;rounded=0;" vertex="1" parent="1">
          <mxGeometry x="640" y="-90" width="40" height="20" as="geometry" />
        </mxCell>
      </root>
    </mxGraphModel>
  </diagram>
</mxfile>
